<?xml version="1.0" encoding="UTF-8"?><svg id="Calque_2" xmlns="http://www.w3.org/2000/svg" viewBox="0 0 2690.43 380"><g id="Calque_1-2"><g id="Full_Black"><path d="m704.04,140.39h-60.09c-.43-4.97-1.54-9.48-3.36-13.53s-4.3-7.55-7.46-10.49c-3.16-2.95-6.98-5.22-11.45-6.82-4.47-1.6-9.55-2.4-15.23-2.4-9.94,0-18.34,2.42-25.2,7.24-6.85,4.83-12.04,11.76-15.55,20.77-3.52,9.02-5.27,19.85-5.27,32.49,0,13.35,1.79,24.52,5.38,33.5,3.59,8.99,8.79,15.73,15.61,20.24,6.82,4.51,15.02,6.76,24.61,6.76,5.47,0,10.37-.69,14.7-2.08,4.33-1.39,8.1-3.39,11.29-6.02,3.2-2.63,5.81-5.81,7.83-9.53,2.02-3.73,3.39-7.94,4.1-12.62l60.09.43c-.71,9.23-3.3,18.63-7.78,28.18-4.47,9.55-10.81,18.36-19.02,26.42-8.2,8.06-18.34,14.54-30.42,19.44-12.08,4.9-26.1,7.35-42.08,7.35-20.03,0-37.98-4.3-53.85-12.89-15.87-8.59-28.41-21.24-37.61-37.93-9.2-16.69-13.8-37.11-13.8-61.26s4.69-44.76,14.06-61.42c9.38-16.65,22.02-29.26,37.93-37.82,15.91-8.56,33.67-12.84,53.27-12.84,13.78,0,26.46,1.88,38.03,5.65,11.58,3.77,21.73,9.25,30.47,16.46,8.74,7.21,15.77,16.07,21.09,26.58,5.33,10.51,8.56,22.55,9.69,36.11Z"/><path d="m774.34,279.31c-10.44,0-19.66-1.72-27.65-5.17-7.99-3.44-14.26-8.68-18.8-15.71-4.55-7.03-6.82-15.98-6.82-26.85,0-8.95,1.53-16.6,4.58-22.96,3.05-6.36,7.31-11.56,12.78-15.61,5.47-4.05,11.84-7.14,19.12-9.27,7.28-2.13,15.14-3.52,23.6-4.15,9.16-.71,16.53-1.58,22.11-2.61,5.57-1.03,9.6-2.49,12.09-4.37,2.49-1.88,3.73-4.38,3.73-7.51v-.43c0-4.26-1.63-7.53-4.9-9.8-3.27-2.27-7.46-3.41-12.57-3.41-5.61,0-10.17,1.23-13.69,3.68-3.52,2.45-5.63,6.2-6.34,11.24h-54.12c.71-9.94,3.89-19.12,9.54-27.54,5.65-8.42,13.9-15.16,24.77-20.24,10.87-5.08,24.43-7.62,40.7-7.62,11.72,0,22.23,1.37,31.53,4.1,9.3,2.73,17.22,6.54,23.76,11.4,6.53,4.87,11.52,10.55,14.97,17.05,3.44,6.5,5.17,13.55,5.17,21.15v112.07h-54.97v-23.01h-1.28c-3.27,6.11-7.23,11.04-11.88,14.81-4.65,3.77-9.94,6.5-15.87,8.2-5.93,1.7-12.45,2.56-19.55,2.56Zm19.18-37.07c4.47,0,8.68-.92,12.62-2.77,3.94-1.85,7.15-4.51,9.64-7.99,2.49-3.48,3.73-7.71,3.73-12.68v-13.64c-1.56.64-3.21,1.24-4.95,1.81-1.74.57-3.59,1.1-5.54,1.6-1.95.5-4.01.96-6.18,1.38-2.17.43-4.42.82-6.77,1.17-4.55.71-8.26,1.86-11.13,3.46s-5.01,3.55-6.39,5.86c-1.38,2.31-2.08,4.88-2.08,7.72,0,4.55,1.6,8.03,4.79,10.44,3.2,2.42,7.28,3.62,12.25,3.62Z"/><path d="m1000.59,113.12v42.61h-107.81v-42.61h107.81Zm-86.93-39.2h58.81v150.21c0,2.27.39,4.17,1.17,5.7.78,1.53,1.99,2.66,3.62,3.41,1.63.75,3.73,1.12,6.29,1.12,1.77,0,3.85-.21,6.23-.64,2.38-.43,4.14-.78,5.27-1.07l8.52,41.33c-2.63.78-6.38,1.74-11.24,2.88-4.87,1.14-10.64,1.88-17.31,2.24-13.49.71-24.82-.69-33.98-4.21-9.16-3.52-16.05-9.07-20.67-16.67-4.62-7.6-6.85-17.12-6.71-28.55V73.91Z"/><path d="m1098.16,279.74c-17.47,0-32.51-3.36-45.12-10.07-12.61-6.71-22.3-16.37-29.08-28.98-6.78-12.61-10.17-27.72-10.17-45.33s3.41-31.68,10.23-44.32c6.82-12.64,16.44-22.48,28.87-29.51,12.43-7.03,27.09-10.55,44-10.55,12.36,0,23.54,1.92,33.56,5.75,10.01,3.83,18.57,9.39,25.67,16.67,7.1,7.28,12.57,16.1,16.41,26.47,3.84,10.37,5.75,22.05,5.75,35.05v13.64h-146.16v-32.39h92.05c-.07-4.69-1.26-8.82-3.57-12.41-2.31-3.59-5.4-6.39-9.27-8.42-3.87-2.02-8.26-3.04-13.16-3.04s-9.13,1.01-13.1,3.04c-3.98,2.02-7.16,4.81-9.53,8.36-2.38,3.55-3.64,7.71-3.78,12.46v34.94c0,5.26,1.1,9.94,3.3,14.06,2.2,4.12,5.36,7.35,9.48,9.69,4.12,2.34,9.09,3.52,14.91,3.52,4.05,0,7.76-.57,11.13-1.7,3.37-1.14,6.27-2.79,8.68-4.95,2.41-2.17,4.19-4.78,5.33-7.83h53.69c-1.85,11.36-6.22,21.22-13.1,29.56-6.89,8.35-16,14.81-27.33,19.39-11.33,4.58-24.56,6.87-39.68,6.87Z"/><path d="m1277.97,341.53c-16.41,0-30.45-2.33-42.13-6.98-11.68-4.65-20.74-11.04-27.17-19.18-6.43-8.13-10.03-17.46-10.81-27.97h56.68c.57,3.48,1.99,6.29,4.26,8.42,2.27,2.13,5.2,3.68,8.79,4.63,3.59.96,7.62,1.44,12.09,1.44,7.6,0,13.9-1.85,18.91-5.54,5.01-3.69,7.51-10.37,7.51-20.03v-27.7h-1.7c-2.13,5.54-5.4,10.25-9.8,14.12-4.4,3.87-9.69,6.82-15.87,8.84-6.18,2.02-12.96,3.04-20.35,3.04-11.65,0-22.36-2.7-32.12-8.1-9.77-5.4-17.58-13.96-23.44-25.67s-8.79-27.02-8.79-45.92,3.07-35.8,9.21-48.15c6.14-12.36,14.1-21.41,23.86-27.17,9.76-5.75,20.04-8.63,30.84-8.63,8.1,0,15.2,1.4,21.31,4.21,6.11,2.81,11.22,6.54,15.34,11.19,4.12,4.65,7.24,9.75,9.38,15.29h1.28v-28.55h58.81v163.21c0,13.85-3.57,25.62-10.71,35.32-7.14,9.69-17.17,17.1-30.1,22.21-12.93,5.11-28.02,7.67-45.28,7.67Zm2.13-108.67c5.4,0,10.03-1.51,13.9-4.53,3.87-3.02,6.85-7.35,8.95-13,2.09-5.65,3.14-12.45,3.14-20.4s-1.05-15.04-3.14-20.83c-2.1-5.79-5.08-10.23-8.95-13.32-3.87-3.09-8.51-4.63-13.9-4.63s-10,1.54-13.8,4.63c-3.8,3.09-6.71,7.53-8.74,13.32-2.02,5.79-3.04,12.73-3.04,20.83s1.01,14.97,3.04,20.61c2.02,5.65,4.94,9.94,8.74,12.89,3.8,2.95,8.4,4.42,13.8,4.42Z"/><path d="m1469.71,279.74c-17.76,0-32.96-3.53-45.6-10.6-12.64-7.07-22.34-16.94-29.08-29.62-6.75-12.68-10.12-27.4-10.12-44.16s3.37-31.48,10.12-44.16c6.75-12.68,16.44-22.55,29.08-29.62,12.64-7.07,27.84-10.6,45.6-10.6s32.95,3.53,45.6,10.6c12.64,7.07,22.34,16.94,29.08,29.62,6.75,12.68,10.12,27.4,10.12,44.16s-3.37,31.48-10.12,44.16c-6.75,12.68-16.44,22.55-29.08,29.62-12.64,7.07-27.84,10.6-45.6,10.6Zm.43-43.47c4.97,0,9.27-1.67,12.89-5.01,3.62-3.34,6.43-8.1,8.42-14.28,1.99-6.18,2.98-13.53,2.98-22.05s-1-15.96-2.98-22.11c-1.99-6.14-4.79-10.88-8.42-14.22-3.62-3.34-7.92-5.01-12.89-5.01-5.26,0-9.77,1.67-13.53,5.01-3.77,3.34-6.64,8.08-8.63,14.22-1.99,6.14-2.98,13.51-2.98,22.11s.99,15.87,2.98,22.05c1.99,6.18,4.86,10.94,8.63,14.28,3.76,3.34,8.27,5.01,13.53,5.01Z"/><path d="m1575.37,276.76V113.12h57.1v31.11h1.7c2.98-11.51,7.72-19.92,14.22-25.25s14.12-7.99,22.85-7.99c2.56,0,5.1.2,7.62.59,2.52.39,4.95.94,7.3,1.65v50.18c-2.91-.99-6.5-1.74-10.76-2.24-4.26-.5-7.92-.75-10.97-.75-5.75,0-10.92,1.3-15.5,3.89-4.58,2.59-8.19,6.22-10.81,10.87-2.63,4.65-3.94,10.1-3.94,16.35v85.23h-58.81Z"/><path d="m1702.34,276.76V113.12h58.81v163.64h-58.81Zm29.51-180.68c-8.03,0-14.88-2.63-20.56-7.88-5.68-5.25-8.52-11.58-8.52-18.96s2.84-13.71,8.52-18.96c5.68-5.25,12.5-7.88,20.45-7.88s14.86,2.63,20.51,7.88c5.65,5.26,8.47,11.58,8.47,18.96s-2.82,13.71-8.47,18.96c-5.65,5.26-12.45,7.88-20.4,7.88Z"/><path d="m1789.68,276.76v-32.39l71.59-85.65v-.85h-69.03v-44.74h138.49v35.8l-65.2,82.24v.85h67.76v44.74h-143.61Z"/><path d="m2008.27,279.31c-10.44,0-19.66-1.72-27.65-5.17-7.99-3.44-14.26-8.68-18.8-15.71-4.55-7.03-6.82-15.98-6.82-26.85,0-8.95,1.53-16.6,4.58-22.96,3.05-6.36,7.31-11.56,12.78-15.61,5.47-4.05,11.84-7.14,19.12-9.27,7.28-2.13,15.14-3.52,23.6-4.15,9.16-.71,16.53-1.58,22.11-2.61,5.57-1.03,9.6-2.49,12.09-4.37,2.49-1.88,3.73-4.38,3.73-7.51v-.43c0-4.26-1.63-7.53-4.9-9.8-3.27-2.27-7.46-3.41-12.57-3.41-5.61,0-10.17,1.23-13.69,3.68-3.52,2.45-5.63,6.2-6.34,11.24h-54.12c.71-9.94,3.89-19.12,9.54-27.54,5.65-8.42,13.9-15.16,24.77-20.24,10.87-5.08,24.43-7.62,40.7-7.62,11.72,0,22.23,1.37,31.53,4.1,9.3,2.73,17.22,6.54,23.76,11.4,6.53,4.87,11.52,10.55,14.97,17.05,3.44,6.5,5.17,13.55,5.17,21.15v112.07h-54.97v-23.01h-1.28c-3.27,6.11-7.23,11.04-11.88,14.81-4.65,3.77-9.94,6.5-15.87,8.2-5.93,1.7-12.45,2.56-19.55,2.56Zm19.18-37.07c4.47,0,8.68-.92,12.62-2.77,3.94-1.85,7.15-4.51,9.64-7.99,2.49-3.48,3.73-7.71,3.73-12.68v-13.64c-1.56.64-3.21,1.24-4.95,1.81-1.74.57-3.59,1.1-5.54,1.6-1.95.5-4.01.96-6.18,1.38-2.17.43-4.42.82-6.77,1.17-4.55.71-8.26,1.86-11.13,3.46s-5.01,3.55-6.39,5.86c-1.38,2.31-2.08,4.88-2.08,7.72,0,4.55,1.6,8.03,4.79,10.44,3.2,2.42,7.28,3.62,12.25,3.62Z"/><path d="m2234.52,113.12v42.61h-107.81v-42.61h107.81Zm-86.93-39.2h58.81v150.21c0,2.27.39,4.17,1.17,5.7.78,1.53,1.99,2.66,3.62,3.41,1.63.75,3.73,1.12,6.29,1.12,1.77,0,3.85-.21,6.23-.64,2.38-.43,4.14-.78,5.27-1.07l8.52,41.33c-2.63.78-6.38,1.74-11.24,2.88-4.87,1.14-10.64,1.88-17.31,2.24-13.49.71-24.82-.69-33.98-4.21-9.16-3.52-16.05-9.07-20.67-16.67-4.62-7.6-6.85-17.12-6.71-28.55V73.91Z"/><path d="m2255.38,276.76V113.12h58.81v163.64h-58.81Zm29.51-180.68c-8.03,0-14.88-2.63-20.56-7.88-5.68-5.25-8.52-11.58-8.52-18.96s2.84-13.71,8.52-18.96c5.68-5.25,12.5-7.88,20.45-7.88s14.86,2.63,20.51,7.88c5.65,5.26,8.47,11.58,8.47,18.96s-2.82,13.71-8.47,18.96c-5.65,5.26-12.45,7.88-20.4,7.88Z"/><path d="m2419.85,279.74c-17.76,0-32.96-3.53-45.6-10.6-12.64-7.07-22.34-16.94-29.08-29.62-6.75-12.68-10.12-27.4-10.12-44.16s3.37-31.48,10.12-44.16c6.75-12.68,16.44-22.55,29.08-29.62,12.64-7.07,27.84-10.6,45.6-10.6s32.95,3.53,45.6,10.6c12.64,7.07,22.34,16.94,29.08,29.62,6.75,12.68,10.12,27.4,10.12,44.16s-3.37,31.48-10.12,44.16c-6.75,12.68-16.44,22.55-29.08,29.62-12.64,7.07-27.84,10.6-45.6,10.6Zm.43-43.47c4.97,0,9.27-1.67,12.89-5.01,3.62-3.34,6.43-8.1,8.42-14.28,1.99-6.18,2.98-13.53,2.98-22.05s-1-15.96-2.98-22.11c-1.99-6.14-4.79-10.88-8.42-14.22-3.62-3.34-7.92-5.01-12.89-5.01-5.26,0-9.77,1.67-13.53,5.01-3.77,3.34-6.64,8.08-8.63,14.22-1.99,6.14-2.98,13.51-2.98,22.11s.99,15.87,2.98,22.05c1.99,6.18,4.86,10.94,8.63,14.28,3.76,3.34,8.27,5.01,13.53,5.01Z"/><path d="m2584.32,184.71v92.05h-58.81V113.12h55.82v31.11h1.7c3.55-10.37,9.82-18.5,18.8-24.4,8.98-5.89,19.48-8.84,31.48-8.84s21.64,2.65,30.2,7.94c8.56,5.29,15.2,12.55,19.92,21.79,4.72,9.23,7.05,19.78,6.98,31.64v104.4h-58.81v-92.05c.07-8.1-1.97-14.45-6.13-19.07-4.15-4.62-9.93-6.92-17.31-6.92-4.83,0-9.04,1.05-12.62,3.14-3.59,2.1-6.34,5.08-8.26,8.95-1.92,3.87-2.91,8.51-2.98,13.9Z"/><g id="Favicon"><path d="m43.47,0h293.16c23.97,0,43.37,19.39,43.37,43.46v293.08c0,23.97-19.4,43.46-43.47,43.46H43.47c-24.07-.1-43.47-19.49-43.47-43.56V43.46C0,19.39,19.4,0,43.47,0Z" style="fill:#db2777;"/><path d="m160.63,192.3v-68.22c0-16.22,13.15-29.37,29.37-29.37s29.37,13.15,29.37,29.37v9.82" style="fill:none; stroke:#fff; stroke-linecap:round; stroke-miterlimit:66.67; stroke-width:19.58px;"/><path d="m219.37,192.62v68.51c0,16.22-13.15,29.37-29.37,29.37s-29.37-13.15-29.37-29.37v-9.94" style="fill:none; stroke:#fff; stroke-linecap:round; stroke-miterlimit:66.67; stroke-width:19.58px;"/><path d="m190,221.98h-68.61c-16.18,0-29.29-13.15-29.29-29.37s13.11-29.37,29.29-29.37h9.81" style="fill:none; stroke:#fff; stroke-linecap:round; stroke-miterlimit:66.67; stroke-width:19.58px;"/><path d="m190,163.24h68.48c16.25,0,29.43,13.15,29.43,29.37s-13.17,29.37-29.43,29.37h-9.41" style="fill:none; stroke:#fff; stroke-linecap:round; stroke-miterlimit:66.67; stroke-width:19.58px;"/></g></g></g></svg>